<?xml version="1.0" encoding="UTF-8" standalone="no"?>
<!-- Created with Inkscape (http://www.inkscape.org/) -->

<svg
   xmlns:dc="http://purl.org/dc/elements/1.1/"
   xmlns:cc="http://creativecommons.org/ns#"
   xmlns:rdf="http://www.w3.org/1999/02/22-rdf-syntax-ns#"
   xmlns:svg="http://www.w3.org/2000/svg"
   xmlns="http://www.w3.org/2000/svg"
   xmlns:sodipodi="http://sodipodi.sourceforge.net/DTD/sodipodi-0.dtd"
   xmlns:inkscape="http://www.inkscape.org/namespaces/inkscape"
   width="153.26605pt"
   height="150.42674pt"
   viewBox="0 0 54.068857 53.06721"
   version="1.1"
   id="svg2664"
   inkscape:version="0.92.3 (2405546, 2018-03-11)"
   sodipodi:docname="37-triangle-grid.svg">
  <defs
     id="defs2658" />
  <sodipodi:namedview
     id="base"
     pagecolor="#ffffff"
     bordercolor="#666666"
     borderopacity="1.0"
     inkscape:pageopacity="0.0"
     inkscape:pageshadow="2"
     inkscape:zoom="3.6944895"
     inkscape:cx="119.22926"
     inkscape:cy="100.2845"
     inkscape:document-units="mm"
     inkscape:current-layer="layer1"
     showgrid="false"
     fit-margin-top="0"
     fit-margin-left="0"
     fit-margin-right="0"
     fit-margin-bottom="0"
     units="pt"
     inkscape:window-width="1920"
     inkscape:window-height="1006"
     inkscape:window-x="1909"
     inkscape:window-y="-11"
     inkscape:window-maximized="1" />
  <metadata
     id="metadata2661">
    <rdf:RDF>
      <cc:Work
         rdf:about="">
        <dc:format>image/svg+xml</dc:format>
        <dc:type
           rdf:resource="http://purl.org/dc/dcmitype/StillImage" />
        <dc:title></dc:title>
      </cc:Work>
    </rdf:RDF>
  </metadata>
  <g
     inkscape:label="Layer 1"
     inkscape:groupmode="layer"
     id="layer1"
     transform="translate(-66.254764,-95.375585)">
    <path
       id="path2546"
       d="m 93.341148,95.572226 c 3.11272,2.03685 5.989119,4.38951 8.625962,6.986784 2.63684,2.59728 5.03413,5.43922 7.16109,8.47238 2.12697,3.03318 3.98361,6.25755 5.53918,9.61972 1.55557,3.36215 2.81007,6.86213 3.73272,10.4465 0.92265,3.58436 1.51347,7.25309 1.74328,10.98549 -3.32032,1.67727 -6.79598,2.99197 -10.36371,3.97691 -3.56773,0.98493 -7.22756,1.64007 -10.917842,1.96549 -3.69029,0.32543 -7.411001,0.32114 -11.100506,-0.0128 -3.689494,-0.33392 -7.347814,-0.99748 -10.913294,-1.99062 -3.56547,-0.99314 -7.0381,-2.31584 -10.385355,-3.98303 0.207605,-3.71411 0.806865,-7.38147 1.73775,-10.96369 0.930895,-3.58221 2.193435,-7.07928 3.756755,-10.43787 1.56332,-3.3586 3.42739,-6.57868 5.56133,-9.60692 2.13392,-3.02825 4.53774,-5.86466 7.180565,-8.45589 2.642825,-2.591224 5.524625,-4.937254 8.642075,-7.002474 z"
       style="display:inline;opacity:1;fill:none;stroke:#000000;stroke-width:0.35277778;stroke-linecap:round;stroke-linejoin:round;stroke-miterlimit:4;stroke-dasharray:none;paint-order:markers fill stroke"
       inkscape:connector-curvature="0"
       sodipodi:nodetypes="cccccccccccccccc" />
    <path
       inkscape:connector-curvature="0"
       style="display:inline;opacity:1;fill:none;stroke:#000000;stroke-width:0.35277778;stroke-linecap:round;stroke-linejoin:round;stroke-miterlimit:4;stroke-dasharray:none;paint-order:markers fill stroke"
       d="m 79.935468,118.86445 c -1.71412,2.95894 -3.15421,6.07667 -4.28896,9.30094 -1.13474,3.22427 -1.96439,6.5549 -2.396075,9.96885 3.236345,1.30378 6.532655,2.26083 9.890345,2.90065 3.3577,0.63984 6.7768,0.96274 10.196388,0.96774 3.419581,0.005 6.839664,-0.30671 10.199334,-0.93612 3.35967,-0.62942 6.65891,-1.57624 9.83132,-2.90936 -0.48907,-3.45465 -1.3084,-6.78786 -2.43314,-10.01562 -1.12474,-3.22777 -2.5549,-6.3501 -4.26011,-9.3142 -1.7052,-2.9641 -3.68545,-5.76997 -5.91037,-8.36482 -2.224934,-2.59485 -4.694523,-4.97867 -7.435242,-7.05948 -2.747282,2.15086 -5.224261,4.52702 -7.45721,7.11496 -2.23297,2.58793 -4.22215,5.38751 -5.93628,8.34646 z"
       id="path2562"
       sodipodi:nodetypes="ccccccccccccc" />
    <path
       style="display:inline;opacity:1;fill:none;stroke:#000000;stroke-width:0.35277778;stroke-linecap:round;stroke-linejoin:round;stroke-miterlimit:4;stroke-dasharray:none;paint-order:markers fill stroke"
       d="m 93.368689,95.554486 0.0172,7.809344 8.581331,-0.80483 -1.2029,7.90351 8.36398,0.5689 -2.45361,7.79592 7.9928,1.82376 -3.73269,7.49044 7.4654,2.95606 -5.03779,6.99075"
       id="path2327"
       inkscape:connector-curvature="0" />
    <path
       inkscape:connector-curvature="0"
       id="path2349"
       d="m 120.14499,142.11607 -6.77169,-3.88977 -3.59366,7.83406 -6.24319,-4.99349 -4.674673,6.95897 -5.524658,-6.02285 -5.575822,6.01009 -4.620569,-6.97783 -6.29272,4.9872 -3.53527,-7.85823"
       style="display:inline;opacity:1;fill:none;stroke:#000000;stroke-width:0.35277778;stroke-linecap:round;stroke-linejoin:round;stroke-miterlimit:4;stroke-dasharray:none;paint-order:markers fill stroke" />
    <path
       style="display:inline;opacity:1;fill:none;stroke:#000000;stroke-width:0.35277778;stroke-linecap:round;stroke-linejoin:round;stroke-miterlimit:4;stroke-dasharray:none;paint-order:markers fill stroke"
       d="m 66.433328,142.02423 6.75449,-3.91957 -4.98767,-7.02923 7.44609,-2.91002 -3.68931,-7.52787 7.97827,-1.77307 -2.41698,-7.83384 8.35326,-0.51262 -1.17268,-7.94325 8.573059,0.86748"
       id="path2371"
       inkscape:connector-curvature="0" />
    <path
       sodipodi:type="star"
       style="display:inline;opacity:1;fill:none;stroke:#000000;stroke-width:0.35277778;stroke-linecap:round;stroke-linejoin:round;stroke-miterlimit:4;stroke-dasharray:none;paint-order:markers fill stroke"
       id="path2375"
       sodipodi:sides="3"
       sodipodi:cx="84.795563"
       sodipodi:cy="-131.46323"
       sodipodi:r1="4.8983393"
       sodipodi:r2="2.4491699"
       sodipodi:arg1="1.5707963"
       sodipodi:arg2="2.6179939"
       inkscape:flatsided="true"
       inkscape:rounded="0"
       inkscape:randomized="0"
       d="m 84.795563,-126.56489 -4.242087,-7.34751 8.484173,0 z"
       inkscape:transform-center-x="-1.4388177e-005"
       inkscape:transform-center-y="-1.2245923"
       transform="scale(1,-1)" />
    <path
       inkscape:transform-center-y="-1.2245923"
       inkscape:transform-center-x="-2.7824996e-005"
       d="m 93.279755,-126.56489 -4.242087,-7.34751 8.484173,0 z"
       inkscape:randomized="0"
       inkscape:rounded="0"
       inkscape:flatsided="true"
       sodipodi:arg2="2.6179939"
       sodipodi:arg1="1.5707963"
       sodipodi:r2="2.4491699"
       sodipodi:r1="4.8983393"
       sodipodi:cy="-131.46323"
       sodipodi:cx="93.279755"
       sodipodi:sides="3"
       id="path2377"
       style="display:inline;opacity:1;fill:none;stroke:#000000;stroke-width:0.35277778;stroke-linecap:round;stroke-linejoin:round;stroke-miterlimit:4;stroke-dasharray:none;paint-order:markers fill stroke"
       sodipodi:type="star"
       transform="scale(1,-1)" />
    <path
       sodipodi:type="star"
       style="display:inline;opacity:1;fill:none;stroke:#000000;stroke-width:0.35277778;stroke-linecap:round;stroke-linejoin:round;stroke-miterlimit:4;stroke-dasharray:none;paint-order:markers fill stroke"
       id="path2379"
       sodipodi:sides="3"
       sodipodi:cx="101.76394"
       sodipodi:cy="-131.46323"
       sodipodi:r1="4.8983393"
       sodipodi:r2="2.4491699"
       sodipodi:arg1="1.5707963"
       sodipodi:arg2="2.6179939"
       inkscape:flatsided="true"
       inkscape:rounded="0"
       inkscape:randomized="0"
       d="m 101.76394,-126.56489 -4.242087,-7.34751 8.484177,0 z"
       inkscape:transform-center-x="-7.9877177e-005"
       inkscape:transform-center-y="-1.2245923"
       transform="scale(1,-1)" />
    <path
       inkscape:transform-center-y="-1.224589"
       inkscape:transform-center-x="-4.4986557e-005"
       d="m 89.037628,-119.21738 -4.242086,-7.34751 8.484172,0 z"
       inkscape:randomized="0"
       inkscape:rounded="0"
       inkscape:flatsided="true"
       sodipodi:arg2="2.6179939"
       sodipodi:arg1="1.5707963"
       sodipodi:r2="2.4491699"
       sodipodi:r1="4.8983393"
       sodipodi:cy="-124.11572"
       sodipodi:cx="89.037628"
       sodipodi:sides="3"
       id="path2381"
       style="display:inline;opacity:1;fill:none;stroke:#000000;stroke-width:0.35277778;stroke-linecap:round;stroke-linejoin:round;stroke-miterlimit:4;stroke-dasharray:none;paint-order:markers fill stroke"
       sodipodi:type="star"
       transform="scale(1,-1)" />
    <path
       sodipodi:type="star"
       style="display:inline;opacity:1;fill:none;stroke:#000000;stroke-width:0.35277778;stroke-linecap:round;stroke-linejoin:round;stroke-miterlimit:4;stroke-dasharray:none;paint-order:markers fill stroke"
       id="path2383"
       sodipodi:sides="3"
       sodipodi:cx="97.521812"
       sodipodi:cy="-124.11572"
       sodipodi:r1="4.8983393"
       sodipodi:r2="2.4491699"
       sodipodi:arg1="1.5707963"
       sodipodi:arg2="2.6179939"
       inkscape:flatsided="true"
       inkscape:rounded="0"
       inkscape:randomized="0"
       d="m 97.521813,-119.21738 -4.242087,-7.34751 8.484174,0 z"
       inkscape:transform-center-x="-6.4107744e-005"
       inkscape:transform-center-y="-1.224589"
       transform="scale(1,-1)" />
    <path
       sodipodi:type="star"
       style="display:inline;opacity:1;fill:none;stroke:#000000;stroke-width:0.35277778;stroke-linecap:round;stroke-linejoin:round;stroke-miterlimit:4;stroke-dasharray:none;paint-order:markers fill stroke"
       id="path2385"
       sodipodi:sides="3"
       sodipodi:cx="93.279755"
       sodipodi:cy="-116.76823"
       sodipodi:r1="4.8983393"
       sodipodi:r2="2.4491699"
       sodipodi:arg1="1.5707963"
       sodipodi:arg2="2.6179939"
       inkscape:flatsided="true"
       inkscape:rounded="0"
       inkscape:randomized="0"
       d="m 93.279755,-111.86989 -4.242087,-7.34751 8.484173,0 z"
       inkscape:transform-center-x="-6.8599233e-005"
       inkscape:transform-center-y="-1.2245902"
       transform="scale(1,-1)" />
    <path
       style="display:inline;opacity:1;fill:none;stroke:#000000;stroke-width:0.35277778;stroke-linecap:round;stroke-linejoin:round;stroke-miterlimit:4;stroke-dasharray:none;paint-order:markers fill stroke"
       d="m 93.385887,103.36383 -0.10613,8.50606 7.484563,-1.40738 -3.242472,8.75489 9.152732,-0.39007 -4.91066,7.73757 9.17077,1.57663 -4.92865,5.77087"
       id="path2391"
       inkscape:connector-curvature="0" />
    <path
       inkscape:connector-curvature="0"
       id="path2393"
       d="m 113.36241,138.08834 -7.3134,-4.34494 -2.52345,7.18551 -5.960722,-7.18551 -4.238559,8.12153 -4.245602,-8.12154 -5.950789,7.15381 -2.53339,-7.15377"
       style="display:inline;opacity:1;fill:none;stroke:#000000;stroke-width:0.35277778;stroke-linecap:round;stroke-linejoin:round;stroke-miterlimit:4;stroke-dasharray:none;paint-order:markers fill stroke" />
    <path
       style="display:inline;opacity:1;fill:none;stroke:#000000;stroke-width:0.35277778;stroke-linecap:round;stroke-linejoin:round;stroke-miterlimit:4;stroke-dasharray:none;paint-order:markers fill stroke"
       d="m 73.312738,138.16422 7.41953,-4.16112 -4.96111,-5.77813 9.20319,-1.56938 -4.91417,-7.73147 9.156259,0.38398 -3.219979,-8.73045 7.462038,1.38291"
       id="path2395"
       inkscape:connector-curvature="0" />
  </g>
</svg>
